<?xml version="1.0" standalone="no"?>
<!DOCTYPE svg PUBLIC "-//W3C//DTD SVG 20010904//EN"
 "http://www.w3.org/TR/2001/REC-SVG-20010904/DTD/svg10.dtd">
<svg version="1.0" xmlns="http://www.w3.org/2000/svg"
 width="558.000000pt" height="447.000000pt" viewBox="0 0 558.000000 447.000000"
 preserveAspectRatio="xMidYMid meet">

<g transform="translate(0.000000,447.000000) scale(0.100000,-0.100000)"
fill="#000000" stroke="none">
<path d="M896 2775 c-3 -8 -1 -15 4 -15 6 0 10 7 10 15 0 8 -2 15 -4 15 -2 0
-6 -7 -10 -15z"/>
<path d="M139 2771 c-3 -7 -3 -30 0 -50 l5 -36 6 35 c5 35 6 35 65 41 l60 7
-63 -2 c-34 0 -64 4 -65 9 -2 6 -6 4 -8 -4z"/>
<path d="M848 2763 c6 -2 18 -2 25 0 6 3 1 5 -13 5 -14 0 -19 -2 -12 -5z"/>
<path d="M1003 2763 c48 -2 125 -2 170 0 45 1 6 3 -88 3 -93 0 -130 -2 -82 -3z"/>
<path d="M1387 2763 c18 -2 50 -2 70 0 21 2 7 4 -32 4 -38 0 -55 -2 -38 -4z"/>
<path d="M589 2731 c-25 -16 -59 -50 -78 -80 -18 -28 -34 -51 -36 -51 -1 0
-17 8 -36 17 -56 28 -127 28 -179 1 -63 -34 -110 -105 -110 -167 0 -73 6 -74
138 -30 64 22 127 39 141 37 23 -3 33 -28 151 -367 69 -201 133 -369 141 -374
14 -9 53 4 648 212 79 28 145 52 146 53 14 16 135 272 135 286 0 10 -29 103
-65 207 -36 103 -65 189 -65 190 0 21 -95 -7 -435 -125 -221 -77 -414 -140
-428 -140 -44 0 -93 83 -68 114 7 8 65 33 130 56 155 55 150 51 127 95 -49 91
-169 122 -257 66z m549 -494 c40 -111 72 -207 72 -213 0 -12 -48 -29 -56 -21
-3 2 -38 96 -79 208 l-74 204 27 12 c15 7 29 12 32 13 3 0 38 -91 78 -203z
m-172 -11 c30 -82 51 -153 46 -158 -4 -4 -18 -9 -31 -10 -22 -3 -28 8 -78 147
-52 141 -54 150 -37 162 10 8 25 12 32 11 8 -2 38 -70 68 -152z m-120 -134
c71 -197 80 -228 66 -234 -41 -17 -49 -9 -85 90 -85 232 -128 354 -125 358 8
7 53 21 57 18 3 -3 42 -107 87 -232z m516 221 c34 -30 12 -103 -31 -103 -29 0
-61 30 -61 57 0 54 54 81 92 46z m247 -70 c0 -5 -24 -55 -53 -112 l-53 -105
-28 83 c-15 45 -25 84 -24 85 6 5 143 55 152 55 4 1 7 -2 6 -6z"/>
<path d="M1950 2266 l0 -296 50 0 50 0 0 109 0 109 63 4 c78 5 121 33 150 97
39 88 18 198 -46 245 -24 18 -46 21 -148 24 l-119 4 0 -296z m212 177 c26 -23
24 -92 -3 -127 -17 -21 -29 -26 -65 -26 l-44 0 0 85 0 85 47 0 c29 0 53 -6 65
-17z"/>
<path d="M2480 2438 c0 -67 -3 -201 -7 -295 l-6 -173 101 0 c138 0 180 19 223
102 16 32 19 59 19 200 0 150 -2 166 -23 202 -40 70 -63 81 -193 84 l-114 4 0
-124z m209 -4 c19 -24 21 -40 21 -161 0 -170 -15 -202 -92 -203 l-38 0 0 195
0 195 44 0 c36 0 48 -5 65 -26z"/>
<path d="M3017 2348 c-4 -116 -7 -249 -7 -295 l0 -83 55 0 55 0 0 125 0 125
91 0 90 0 -3 53 -3 52 -87 3 -88 3 0 64 0 65 90 0 90 0 0 50 0 50 -138 0 -139
0 -6 -212z"/>
<path d="M3520 2265 l0 -295 50 0 50 0 0 103 c0 82 4 106 18 125 l18 23 55
-123 56 -123 56 -3 c31 -2 57 -1 57 2 0 2 -33 74 -74 160 -41 85 -77 164 -81
175 -4 15 14 51 64 131 39 61 71 113 71 115 0 3 -23 5 -50 5 l-50 0 -61 -92
c-33 -51 -65 -94 -70 -96 -5 -2 -9 38 -9 92 l0 96 -50 0 -50 0 0 -295z"/>
<path d="M4060 2265 l0 -295 50 0 50 0 0 125 0 125 44 0 c28 0 52 -7 67 -19
22 -18 24 -28 27 -125 l4 -106 50 0 50 0 -3 119 c-4 103 -7 123 -25 148 -21
28 -21 29 -3 52 63 78 37 206 -52 251 -31 16 -59 20 -149 20 l-110 0 0 -295z
m220 177 c27 -22 29 -65 5 -92 -14 -15 -31 -20 -72 -20 l-53 0 0 65 0 65 49 0
c32 0 56 -6 71 -18z"/>
<path d="M4637 2293 c-27 -148 -51 -280 -54 -295 -5 -28 -5 -28 45 -28 48 0
51 2 57 30 6 29 8 30 65 30 56 0 58 -1 64 -30 5 -29 8 -30 56 -30 47 0 50 1
45 23 -6 28 -95 552 -95 560 0 4 -30 7 -68 7 l-67 0 -48 -267z m148 -120 l7
-53 -41 0 c-31 0 -41 4 -41 16 0 24 30 207 37 224 6 14 20 -59 38 -187z"/>
<path d="M5110 2265 l0 -295 50 0 50 0 0 125 0 125 90 0 90 0 0 55 0 55 -90 0
-90 0 0 65 0 65 90 0 90 0 0 50 0 50 -140 0 -140 0 0 -295z"/>
<path d="M140 1990 c-3 -157 -2 -289 3 -294 4 -6 11 -6 19 2 8 8 8 15 0 25 -8
9 -13 100 -14 283 l-3 269 -5 -285z"/>
<path d="M215 1710 c-22 -4 54 -7 170 -7 147 0 188 2 135 7 -96 9 -254 9 -305
0z"/>
</g>
</svg>
