<?xml version="1.0" standalone="no"?>
<!DOCTYPE svg PUBLIC "-//W3C//DTD SVG 20010904//EN"
 "http://www.w3.org/TR/2001/REC-SVG-20010904/DTD/svg10.dtd">
<svg version="1.0" xmlns="http://www.w3.org/2000/svg"
 width="512.000000pt" height="512.000000pt" viewBox="0 0 512.000000 512.000000"
 preserveAspectRatio="xMidYMid meet">

<g transform="translate(0.000000,512.000000) scale(0.100000,-0.100000)"
fill="#000000" stroke="none">
<path d="M470 5104 c-221 -47 -408 -236 -455 -459 -12 -58 -15 -195 -15 -782
l0 -713 200 0 199 0 3 718 3 719 27 39 c15 21 44 50 65 64 l37 25 728 3 728 3
0 199 0 200 -727 -1 c-584 0 -741 -3 -793 -15z"/>
<path d="M3130 4920 l0 -199 728 -3 728 -3 37 -25 c21 -14 50 -43 65 -64 l27
-39 3 -719 3 -718 199 0 200 0 0 713 c0 792 0 792 -66 927 -51 103 -161 213
-264 264 -135 66 -134 66 -937 66 l-723 0 0 -200z"/>
<path d="M1075 3430 l-140 -140 270 -270 270 -270 -738 0 -737 0 0 -200 0
-200 742 0 743 0 -275 -276 -275 -275 145 -139 145 -139 86 87 c47 48 276 280
509 515 l424 428 -509 509 c-281 281 -512 510 -515 510 -3 0 -68 -63 -145
-140z"/>
<path d="M3385 3060 l-509 -509 424 -428 c233 -235 462 -467 509 -515 l86 -87
145 139 145 139 -275 275 -275 276 743 0 742 0 0 200 0 200 -737 0 -738 0 270
270 270 270 -140 140 c-77 77 -142 140 -145 140 -3 0 -234 -229 -515 -510z"/>
<path d="M0 1248 c0 -782 0 -783 66 -918 51 -103 161 -213 264 -264 135 -66
134 -66 938 -66 l722 0 0 200 0 199 -728 3 -729 3 -39 27 c-21 15 -50 44 -64
65 l-25 37 -3 708 -3 708 -199 0 -200 0 0 -702z"/>
<path d="M4718 1242 l-3 -708 -25 -37 c-14 -21 -43 -50 -64 -65 l-39 -27 -729
-3 -728 -3 0 -199 0 -200 723 0 c803 0 802 0 937 66 103 51 213 161 264 264
66 135 66 136 66 918 l0 702 -200 0 -199 0 -3 -708z"/>
</g>
</svg>
