<?xml version="1.0" standalone="no"?>
<!DOCTYPE svg PUBLIC "-//W3C//DTD SVG 20010904//EN"
 "http://www.w3.org/TR/2001/REC-SVG-20010904/DTD/svg10.dtd">
<svg version="1.0" xmlns="http://www.w3.org/2000/svg"
 width="512.000000pt" height="512.000000pt" viewBox="0 0 512.000000 512.000000"
 preserveAspectRatio="xMidYMid meet">

<g transform="translate(0.000000,512.000000) scale(0.100000,-0.100000)"
fill="#000000" stroke="none">
<path d="M750 5102 c-149 -39 -265 -147 -324 -301 l-21 -56 -3 -2145 c-2
-1530 0 -2164 8 -2210 32 -184 184 -341 368 -379 75 -16 3489 -16 3564 0 161
34 290 146 352 308 l21 56 3 1510 c2 1050 -1 1535 -8 1594 -19 148 -70 281
-153 406 -57 86 -971 1002 -1065 1066 -88 61 -191 110 -297 141 l-80 23 -1150
2 c-1058 2 -1155 1 -1215 -15z m2290 -304 c30 -15 53 -37 67 -63 22 -39 23
-46 23 -390 0 -196 5 -379 11 -415 28 -172 153 -317 322 -373 57 -19 94 -21
457 -26 389 -6 395 -6 427 -29 17 -12 41 -42 52 -65 l21 -43 0 -1475 c0 -1412
-1 -1476 -19 -1514 -21 -46 -54 -79 -94 -94 -40 -15 -3454 -15 -3494 0 -40 15
-73 48 -94 94 -18 38 -19 120 -19 2153 0 2298 -4 2149 53 2211 48 52 3 50
1162 51 l1081 0 44 -22z m782 -575 c208 -208 378 -382 378 -386 0 -5 -143 -7
-317 -5 -360 3 -371 6 -421 81 l-27 40 -3 324 c-2 178 1 323 5 323 4 0 178
-170 385 -377z"/>
<path d="M1113 3810 c-42 -25 -63 -68 -63 -127 0 -58 26 -105 72 -130 30 -16
72 -18 481 -21 247 -2 447 -7 445 -11 -2 -4 -30 -81 -63 -169 l-60 -161 -395
-3 c-377 -3 -396 -4 -422 -23 -82 -62 -78 -195 9 -252 24 -16 59 -18 361 -21
254 -2 333 -6 330 -15 -3 -7 -31 -83 -63 -169 l-58 -158 -259 0 c-279 0 -301
-3 -348 -54 -19 -21 -25 -40 -28 -89 -4 -57 -2 -66 24 -96 47 -56 71 -61 294
-61 110 0 200 -4 200 -9 0 -4 -18 -57 -41 -117 -23 -60 -50 -132 -60 -161
l-20 -51 -147 -4 c-164 -4 -198 -14 -232 -71 -27 -43 -26 -119 0 -162 30 -49
73 -65 175 -65 l87 0 -6 -25 c-4 -14 -68 -188 -142 -388 -90 -239 -136 -376
-137 -403 -1 -57 29 -104 83 -132 43 -22 51 -22 400 -22 210 0 370 4 392 10
55 16 88 62 137 193 l43 117 458 0 458 0 43 -117 c49 -131 82 -177 137 -193
22 -6 182 -10 392 -10 349 0 357 0 400 22 54 28 83 75 82 132 0 26 -49 169
-136 403 -75 200 -138 374 -142 388 l-6 25 87 0 c102 0 145 16 175 65 26 43
27 119 0 162 -34 57 -68 67 -232 71 l-147 4 -20 51 c-10 29 -37 101 -60 161
-23 60 -41 113 -41 117 0 5 90 9 200 9 217 0 244 5 290 55 22 23 25 36 25 95
0 59 -3 72 -25 95 -47 52 -68 55 -348 55 l-259 0 -58 158 c-32 86 -60 162 -63
169 -3 9 76 13 330 15 330 3 333 3 366 26 43 31 65 77 64 131 0 50 -21 84 -72
119 -33 22 -35 22 -419 22 l-386 0 -105 282 c-80 219 -111 291 -136 318 l-32
35 -889 3 c-867 2 -889 2 -920 -18z m1642 -297 c4 -10 217 -585 475 -1278 258
-693 471 -1268 475 -1277 7 -17 -6 -18 -177 -18 l-184 0 -43 120 c-47 129 -66
162 -111 185 -43 22 -1217 22 -1260 0 -44 -23 -64 -55 -111 -184 l-44 -121
-184 0 c-170 0 -183 1 -176 17 4 10 217 585 475 1278 258 693 471 1268 475
1278 6 15 25 17 195 17 170 0 189 -2 195 -17z"/>
<path d="M2483 2750 c-18 -10 -38 -29 -46 -42 -32 -49 -347 -919 -347 -956 0
-46 30 -96 72 -122 31 -19 51 -20 398 -20 347 0 367 1 398 20 42 26 72 76 72
122 0 37 -315 907 -347 956 -23 37 -73 62 -123 62 -27 0 -58 -8 -77 -20z m130
-698 c26 -71 47 -132 47 -135 0 -4 -45 -7 -100 -7 -55 0 -100 3 -100 7 0 14
95 263 100 263 3 0 27 -58 53 -128z"/>
</g>
</svg>
