<?xml version="1.0" standalone="no"?>
<!DOCTYPE svg PUBLIC "-//W3C//DTD SVG 20010904//EN"
 "http://www.w3.org/TR/2001/REC-SVG-20010904/DTD/svg10.dtd">
<svg version="1.0" xmlns="http://www.w3.org/2000/svg"
 width="512.000000pt" height="512.000000pt" viewBox="0 0 512.000000 512.000000"
 preserveAspectRatio="xMidYMid meet">

<g transform="translate(0.000000,512.000000) scale(0.100000,-0.100000)"
fill="#000000" stroke="none">
<path d="M2514 5100 c-25 -12 -49 -35 -62 -59 -21 -36 -22 -52 -22 -246 l0
-207 -70 65 c-105 100 -184 110 -260 33 -27 -29 -34 -45 -38 -89 -3 -36 1 -63
11 -83 9 -16 111 -124 229 -241 298 -296 278 -295 562 -14 104 102 202 206
217 230 51 80 31 174 -47 218 -77 44 -139 26 -229 -66 l-60 -62 -5 220 c-5
202 -7 222 -26 247 -52 70 -128 91 -200 54z"/>
<path d="M1824 3701 c-23 -10 -52 -34 -65 -52 l-24 -34 0 -1055 0 -1055 24
-34 c13 -18 42 -42 65 -52 39 -18 80 -19 736 -19 l696 0 44 23 c33 16 51 34
68 67 l22 44 0 593 0 592 -384 3 c-373 3 -385 4 -413 24 -15 12 -37 36 -48 55
-19 32 -20 55 -23 477 l-3 442 -327 0 c-297 0 -331 -2 -368 -19z"/>
<path d="M2830 3240 l0 -210 187 0 186 0 -20 23 c-11 12 -93 106 -182 210 -89
103 -164 187 -167 187 -2 0 -4 -94 -4 -210z"/>
<path d="M674 3111 c-49 -22 -81 -61 -90 -107 -12 -66 3 -101 78 -180 l71 -74
-214 0 c-190 0 -218 -2 -249 -19 -51 -27 -82 -84 -77 -144 5 -60 30 -95 87
-124 42 -22 57 -23 244 -23 l199 0 -65 -68 c-76 -79 -94 -123 -77 -187 14 -51
65 -102 112 -110 86 -16 95 -11 334 228 311 311 310 282 15 580 -114 115 -218
215 -232 222 -47 24 -92 27 -136 6z"/>
<path d="M4340 3118 c-43 -12 -440 -402 -466 -456 -22 -47 -14 -112 20 -161
15 -21 111 -122 215 -224 202 -200 229 -217 307 -202 51 9 110 68 119 119 11
59 -9 106 -76 180 l-61 66 199 0 c171 0 203 3 239 19 84 38 115 129 72 210
-41 76 -60 81 -300 81 -115 0 -208 3 -208 7 0 3 29 36 64 73 40 41 68 80 74
102 32 117 -79 222 -198 186z"/>
<path d="M2520 1054 c-39 -16 -422 -392 -446 -436 -18 -35 -18 -111 1 -148 31
-60 98 -89 172 -75 27 5 56 25 110 77 l73 71 0 -212 c0 -201 1 -216 22 -252
42 -75 151 -101 217 -52 64 49 66 55 69 290 l3 215 68 -65 c75 -73 123 -93
180 -77 101 29 147 121 107 213 -18 41 -422 443 -459 457 -38 14 -75 12 -117
-6z"/>
</g>
</svg>
