<?xml version="1.0" standalone="no"?>
<!DOCTYPE svg PUBLIC "-//W3C//DTD SVG 20010904//EN"
 "http://www.w3.org/TR/2001/REC-SVG-20010904/DTD/svg10.dtd">
<svg version="1.0" xmlns="http://www.w3.org/2000/svg"
 width="558.000000pt" height="447.000000pt" viewBox="0 0 558.000000 447.000000"
 preserveAspectRatio="xMidYMid meet">

<g transform="translate(0.000000,447.000000) scale(0.100000,-0.100000)"
fill="#000000" stroke="none">
<path d="M628 2750 c-44 -13 -84 -47 -118 -100 -18 -27 -33 -50 -35 -50 -1 0
-17 8 -36 17 -56 28 -127 28 -179 1 -76 -41 -124 -132 -106 -202 8 -34 24 -33
142 9 54 20 111 35 128 33 l30 -3 126 -363 c75 -218 132 -368 142 -373 11 -6
85 15 244 70 342 119 547 191 550 193 12 15 134 272 134 284 0 28 -122 374
-140 396 -16 20 -20 18 -345 -95 -544 -190 -507 -178 -530 -163 -30 20 -58 73
-51 99 4 18 28 30 133 66 70 24 132 47 136 51 12 10 -15 59 -50 92 -47 45
-108 58 -175 38z m511 -515 c40 -112 73 -208 72 -212 -1 -10 -50 -27 -57 -20
-2 2 -38 96 -79 208 l-74 204 27 12 c15 7 29 12 32 13 3 0 39 -92 79 -205z
m-172 -9 c30 -82 50 -153 46 -157 -4 -4 -19 -10 -33 -14 -24 -5 -27 -1 -72
127 -63 179 -64 185 -41 191 40 11 47 1 100 -147z m-122 -131 c86 -237 87
-245 38 -245 -14 0 -24 9 -31 28 -5 15 -42 116 -82 225 -39 109 -70 200 -68
201 13 11 45 25 52 23 4 -2 46 -106 91 -232z m517 218 c36 -32 12 -103 -35
-103 -49 0 -75 64 -40 102 20 22 51 23 75 1z m247 -70 c0 -5 -24 -55 -53 -112
l-52 -103 -27 73 c-15 41 -27 79 -27 84 0 6 33 22 73 37 80 30 87 31 86 21z"/>
<path d="M1950 2281 c0 -154 -3 -286 -6 -295 -5 -13 3 -16 50 -16 l56 0 0 109
0 109 64 4 c116 7 173 80 164 212 -8 122 -56 156 -220 156 l-108 0 0 -279z
m212 162 c12 -11 18 -30 18 -61 0 -63 -28 -92 -87 -92 l-43 0 0 85 0 85 47 0
c29 0 53 -6 65 -17z"/>
<path d="M2480 2378 c0 -100 -3 -234 -7 -296 l-6 -114 115 4 c108 3 117 5 152
32 65 49 76 88 76 266 0 142 -2 160 -22 200 -38 74 -62 84 -194 88 l-114 4 0
-184z m209 56 c19 -24 21 -40 21 -161 0 -170 -15 -202 -92 -203 l-38 0 0 195
0 195 44 0 c36 0 48 -5 65 -26z"/>
<path d="M3020 2458 c0 -57 -3 -190 -7 -295 l-6 -193 56 0 57 0 0 125 0 125
90 0 90 0 0 55 0 55 -90 0 -90 0 0 65 0 65 90 0 90 0 0 50 0 50 -140 0 -140 0
0 -102z"/>
<path d="M3520 2265 l0 -295 50 0 50 0 0 103 c0 82 4 106 18 125 l18 23 55
-123 56 -123 56 -3 c31 -2 57 -1 57 2 0 2 -33 74 -74 160 -41 85 -77 164 -81
176 -5 15 12 49 64 130 39 60 71 112 71 115 0 3 -23 5 -50 5 l-50 0 -68 -102
-67 -103 -3 103 -3 102 -49 0 -50 0 0 -295z"/>
<path d="M4060 2265 l0 -295 50 0 50 0 0 125 0 125 44 0 c28 0 52 -7 67 -19
22 -18 24 -28 27 -125 l4 -106 50 0 50 0 -3 119 c-3 102 -7 124 -25 148 -21
28 -21 28 -2 54 28 38 39 97 27 143 -15 55 -33 79 -78 104 -33 19 -54 22 -150
22 l-111 0 0 -295z m220 177 c27 -22 29 -65 5 -92 -14 -15 -31 -20 -72 -20
l-53 0 0 65 0 65 49 0 c32 0 56 -6 71 -18z"/>
<path d="M4637 2288 c-27 -150 -51 -283 -54 -295 -5 -22 -2 -23 45 -23 48 0
51 2 57 30 6 29 8 30 65 30 56 0 58 -1 64 -30 5 -29 8 -30 56 -30 47 0 50 1
45 23 -4 19 -41 228 -87 500 l-11 67 -66 0 -66 0 -48 -272z m132 -5 c7 -49 15
-105 18 -125 l6 -38 -42 0 c-26 0 -41 5 -41 13 0 31 35 237 41 237 3 0 11 -39
18 -87z"/>
<path d="M5110 2265 l0 -295 50 0 50 0 0 125 0 125 90 0 90 0 0 55 0 55 -90 0
-90 0 0 65 0 65 90 0 90 0 0 50 0 50 -140 0 -140 0 0 -295z"/>
</g>
</svg>
